<?xml version="1.0" standalone="no"?>
<!DOCTYPE svg PUBLIC "-//W3C//DTD SVG 20010904//EN"
 "http://www.w3.org/TR/2001/REC-SVG-20010904/DTD/svg10.dtd">
<svg version="1.0"
    xmlns="http://www.w3.org/2000/svg" width="512.000000pt" height="512.000000pt" viewBox="0 0 512.000000 512.000000" preserveAspectRatio="xMidYMid meet">

    <g transform="translate(0.000000,512.000000) scale(0.100000,-0.100000)" fill="#000000" stroke="none">
        <path d="M40 3936 l0 -166 215 0 215 0 0 -1210 0 -1210 -215 0 -215 0 0 -165
0 -165 673 0 c397 0 707 4 757 10 334 41 565 144 748 334 153 160 238 350 277
621 22 149 21 1006 -1 1152 -46 315 -175 554 -382 710 -147 111 -323 184 -537
225 -104 20 -152 21 -822 25 l-713 4 0 -165z m1488 -204 c375 -82 562 -294
611 -692 17 -130 14 -862 -4 -990 -28 -213 -87 -343 -210 -465 -179 -180 -378
-235 -846 -235 l-239 0 0 1206 0 1206 298 -5 c248 -4 312 -8 390 -25z"/>
        <path d="M2740 3930 l0 -170 495 0 495 0 0 -1370 0 -1370 180 0 180 0 0 1370
0 1370 495 0 495 0 0 170 0 170 -1170 0 -1170 0 0 -170z"/>
    </g>
</svg>
